<?xml version="1.0" standalone="no"?>
<!DOCTYPE svg PUBLIC "-//W3C//DTD SVG 20010904//EN"
 "http://www.w3.org/TR/2001/REC-SVG-20010904/DTD/svg10.dtd">
<svg version="1.0" xmlns="http://www.w3.org/2000/svg"
 width="919.000000pt" height="919.000000pt" viewBox="0 0 919.000000 919.000000"
 preserveAspectRatio="xMidYMid meet">
<metadata>
Created by potrace 1.14, written by Peter Selinger 2001-2017
</metadata>
<g transform="translate(0.000000,919.000000) scale(0.100000,-0.100000)"
fill="#000000" stroke="none">
<path d="M4195 8750 c-3 -5 -1 -10 4 -10 6 0 11 5 11 10 0 6 -2 10 -4 10 -3 0
-8 -4 -11 -10z"/>
<path d="M4229 8751 c-1 -3 -1 -9 0 -13 2 -12 -37 -10 -44 2 -3 6 -14 10 -23
9 -14 0 -13 -2 3 -9 26 -11 25 -11 -72 -12 -69 -1 -80 -4 -76 -17 4 -10 0 -9
-10 4 l-16 20 -1 -20 c-1 -11 -4 -14 -7 -7 -2 6 -9 12 -14 12 -6 0 -7 -4 -4
-10 3 -5 1 -10 -4 -10 -6 0 -11 5 -11 10 0 6 -5 10 -11 10 -5 0 -7 -4 -4 -10
4 -6 -6 -10 -22 -11 -110 -3 -128 -5 -126 -15 1 -6 -13 -11 -30 -11 -81 -1
-145 -8 -140 -15 2 -5 8 -6 13 -3 5 3 11 2 14 -3 8 -13 -27 -11 -43 2 -11 8
-13 8 -8 0 5 -8 -4 -12 -26 -13 -76 -3 -102 -8 -99 -19 1 -7 -5 -12 -14 -12
-9 0 -12 5 -8 13 6 10 4 10 -7 0 -7 -7 -31 -13 -52 -13 -28 0 -38 -4 -34 -13
5 -12 -12 -16 -100 -20 -6 0 -9 -7 -6 -15 5 -12 2 -12 -17 -2 -15 8 -20 8 -16
1 5 -7 -7 -11 -33 -12 -53 -2 -58 -3 -67 -11 -3 -4 3 -5 15 -3 12 2 19 0 16
-6 -4 -5 -30 -9 -60 -9 -30 0 -57 -5 -61 -12 -4 -6 -3 -8 2 -5 6 3 16 2 24 -4
15 -9 -15 -13 -80 -10 -14 0 -19 -2 -12 -5 23 -10 12 -20 -25 -22 -44 -3 -60
-12 -42 -23 11 -7 10 -9 -3 -9 -10 0 -18 6 -18 13 0 9 -3 9 -9 -1 -5 -8 -20
-15 -34 -15 -14 -1 -25 -6 -24 -12 1 -5 -11 -12 -28 -13 -16 -2 -34 -11 -41
-19 -6 -9 -18 -14 -27 -10 -9 3 -19 2 -22 -3 -3 -5 -11 -8 -18 -6 -7 1 -9 1
-4 -1 9 -6 9 -23 0 -22 -35 6 -73 -3 -73 -16 0 -9 -9 -15 -24 -15 -13 0 -26
-7 -30 -15 -3 -9 -18 -15 -35 -15 -23 0 -29 -4 -24 -15 3 -9 2 -15 -3 -14 -5
1 -27 1 -48 0 -37 -1 -38 -2 -20 -15 14 -11 15 -14 4 -14 -34 2 -84 -4 -72 -9
6 -2 12 -8 12 -12 0 -8 -7 -9 -57 -12 -16 -1 -22 -4 -15 -6 18 -7 4 -23 -19
-23 -11 0 -18 -4 -14 -9 3 -5 1 -12 -4 -15 -5 -4 -12 2 -14 11 -4 17 -5 17 -6
1 -1 -11 -9 -18 -21 -18 -13 0 -18 -5 -14 -15 4 -8 2 -15 -4 -15 -6 0 -13 6
-15 13 -4 10 -6 10 -6 0 -1 -7 -8 -13 -16 -13 -8 0 -15 -7 -15 -15 0 -9 -9
-15 -25 -15 -14 0 -28 -7 -31 -15 -4 -9 -19 -15 -36 -15 -26 0 -29 -2 -18 -16
8 -8 9 -14 4 -13 -25 4 -44 -3 -44 -16 0 -8 -7 -15 -15 -15 -8 0 -15 -6 -15
-12 0 -9 -4 -8 -10 2 -9 13 -14 7 -11 -12 0 -5 -8 -8 -19 -8 -11 0 -20 -5 -20
-11 0 -5 5 -7 12 -3 7 4 8 3 4 -4 -4 -7 -16 -12 -27 -12 -11 0 -19 -7 -20 -17
0 -15 -2 -15 -9 2 -6 15 -9 16 -9 4 -1 -21 -33 -49 -55 -49 -9 0 -14 -5 -11
-10 7 -12 -35 -30 -50 -22 -5 3 -4 -2 4 -12 8 -9 10 -16 5 -15 -25 4 -44 -3
-44 -16 0 -13 -19 -20 -44 -16 -5 1 -4 -4 2 -11 9 -11 6 -14 -10 -15 -12 -1
-34 -16 -49 -32 -15 -17 -33 -31 -40 -31 -6 0 -8 -7 -5 -16 4 -12 2 -15 -9
-10 -8 3 -15 1 -15 -5 0 -6 -7 -8 -16 -5 -15 6 -15 4 -3 -11 7 -10 9 -15 5
-11 -5 4 -15 3 -23 -3 -7 -6 -13 -9 -13 -5 0 3 -9 -3 -20 -14 -11 -11 -20 -25
-20 -31 0 -6 -7 -9 -15 -5 -14 5 -20 -6 -16 -28 1 -5 -7 -6 -17 -4 -16 4 -18
1 -14 -15 4 -16 2 -19 -11 -14 -12 5 -17 1 -17 -13 0 -13 -5 -18 -15 -14 -11
4 -15 0 -15 -16 0 -16 -4 -20 -15 -16 -9 3 -15 0 -15 -10 0 -8 -7 -17 -15 -20
-8 -4 -15 -12 -15 -20 0 -8 -7 -14 -15 -14 -8 0 -15 -7 -15 -16 0 -8 -5 -12
-11 -9 -6 4 -13 -3 -16 -15 -4 -14 -11 -19 -21 -15 -10 4 -13 0 -9 -15 3 -10
2 -19 -2 -18 -19 2 -31 -3 -26 -12 3 -6 -4 -14 -17 -19 -13 -4 -22 -11 -20
-15 6 -16 1 -25 -13 -20 -11 5 -13 2 -9 -10 4 -11 1 -16 -12 -16 -16 0 -17 -2
-4 -10 13 -8 12 -10 -4 -10 -13 0 -16 -5 -12 -16 6 -15 4 -15 -11 -3 -11 9
-14 10 -9 2 4 -8 -3 -23 -17 -37 -14 -14 -23 -27 -20 -29 2 -3 -5 -8 -17 -12
-13 -4 -19 -12 -16 -20 3 -9 0 -12 -10 -8 -9 3 -14 -1 -14 -11 0 -9 -7 -19
-15 -22 -8 -3 -17 -14 -20 -25 -4 -11 -11 -16 -17 -13 -7 5 -9 1 -5 -9 3 -10
2 -17 -4 -17 -6 0 -7 -5 -3 -12 5 -8 2 -9 -9 -5 -9 3 -16 3 -16 -1 4 -23 -3
-42 -13 -39 -7 1 -13 -8 -14 -21 -1 -13 -7 -29 -14 -35 -10 -9 -11 -9 -6 0 3
6 2 15 -4 18 -6 4 -10 3 -9 -2 4 -22 -2 -43 -11 -38 -5 3 -7 0 -4 -8 3 -8 -2
-20 -10 -27 -9 -7 -13 -17 -9 -24 4 -6 0 -6 -9 2 -13 11 -16 10 -14 -5 0 -11
-5 -17 -13 -15 -12 3 -12 1 -1 -13 11 -14 11 -16 0 -13 -8 2 -14 -3 -15 -11 0
-8 -9 -17 -20 -22 l-20 -8 20 -1 c19 -1 18 -2 -2 -10 -13 -5 -23 -12 -23 -15
0 -4 4 -4 9 -1 5 4 7 -3 4 -15 -4 -16 -8 -17 -14 -7 -7 10 -9 9 -10 -4 -3 -35
-4 -39 -17 -47 -8 -5 -15 -20 -15 -35 -2 -28 -12 -34 -20 -13 -3 6 -6 -3 -6
-20 -1 -22 -6 -33 -16 -33 -14 0 -20 -18 -15 -49 1 -9 -4 -12 -15 -7 -9 3 -14
2 -10 -3 3 -5 -2 -17 -11 -25 -9 -9 -11 -16 -4 -16 6 0 8 -5 5 -10 -4 -6 -11
-8 -16 -5 -5 4 -9 -3 -9 -14 0 -12 -6 -21 -12 -21 -9 0 -8 -4 2 -10 13 -8 8
-14 -10 -12 -3 0 -7 -9 -7 -20 -1 -11 -9 -28 -17 -37 -9 -10 -16 -29 -16 -44
0 -14 -7 -32 -15 -41 -8 -8 -15 -19 -15 -24 0 -6 -7 -12 -15 -16 -8 -3 -15 -9
-14 -13 4 -27 -3 -53 -15 -53 -10 0 -14 -12 -13 -43 2 -39 0 -43 -18 -39 -18
5 -18 3 -6 -11 7 -9 9 -17 4 -17 -6 0 -10 -10 -9 -22 1 -14 -7 -28 -19 -35
-18 -11 -18 -12 -2 -13 16 0 17 -2 4 -15 -9 -8 -14 -26 -13 -40 2 -16 -2 -25
-10 -25 -15 0 -15 -2 -17 -47 0 -16 -7 -33 -14 -38 -9 -7 -15 -34 -16 -72 -2
-51 -4 -58 -13 -41 -10 18 -11 15 -13 -21 -5 -108 -5 -112 -19 -106 -7 2 -12
-1 -11 -8 5 -42 -2 -97 -13 -94 -9 1 -14 -13 -15 -43 -5 -124 -7 -139 -17
-133 -6 4 -5 -1 3 -10 11 -15 11 -17 -1 -17 -12 0 -16 -17 -17 -82 -1 -51 -7
-85 -14 -90 -8 -5 -8 -8 -1 -8 13 0 16 -57 4 -65 -5 -3 -7 4 -5 16 2 12 1 18
-3 15 -11 -11 -10 -128 0 -150 7 -13 7 -16 -1 -12 -6 4 -11 0 -11 -9 0 -9 4
-14 9 -10 5 3 13 1 16 -5 4 -6 1 -9 -7 -8 -10 2 -13 -26 -15 -135 -1 -96 2
-135 9 -131 7 5 8 2 2 -7 -15 -25 -13 -73 4 -94 13 -15 13 -17 1 -8 -13 11
-15 5 -14 -50 1 -42 5 -61 13 -60 8 2 12 -19 12 -73 0 -54 3 -73 12 -68 7 5 8
3 2 -7 -4 -8 -9 -27 -10 -44 -2 -19 0 -25 6 -15 4 7 7 22 5 32 -2 10 0 16 4
14 10 -7 8 -47 -3 -65 -6 -10 -5 -12 2 -7 9 5 12 -10 13 -53 2 -95 4 -106 17
-104 8 2 12 -14 13 -50 1 -28 1 -56 0 -60 -1 -5 3 -6 8 -2 6 3 7 13 4 23 -3 9
-2 14 2 9 9 -7 11 -28 14 -115 0 -26 5 -41 11 -37 6 4 7 12 4 18 -4 7 -3 8 2
4 4 -4 9 -20 10 -35 4 -81 9 -110 16 -106 5 3 6 10 3 15 -4 5 -2 9 3 9 5 0 8
-20 7 -45 0 -25 3 -51 8 -58 6 -8 7 -5 2 8 -5 16 -4 17 6 8 7 -7 13 -25 14
-40 1 -15 3 -39 4 -53 l3 -25 8 25 c7 23 8 23 10 -10 2 -19 3 -45 3 -57 1 -12
5 -20 9 -17 7 5 12 -10 9 -28 0 -5 4 -8 10 -8 6 0 8 -8 4 -19 -3 -11 1 -25 10
-34 8 -9 15 -23 15 -31 0 -9 5 -16 11 -16 5 0 7 -5 4 -10 -3 -5 -1 -10 4 -10
6 0 11 -11 11 -25 0 -14 7 -28 15 -31 8 -4 15 -15 15 -26 0 -13 4 -17 13 -12
8 5 7 2 -2 -9 -8 -10 -11 -20 -7 -24 3 -3 6 0 6 8 0 25 20 -13 20 -38 0 -13 6
-23 13 -23 7 0 14 -12 15 -27 1 -15 9 -31 17 -36 8 -4 15 -19 15 -32 0 -16 6
-25 15 -25 10 0 15 -10 15 -30 0 -20 5 -30 15 -30 9 0 15 -9 15 -21 0 -15 5
-19 15 -15 8 3 14 2 14 -2 -4 -27 4 -51 19 -55 16 -4 16 -5 -1 -6 -10 0 -15
-6 -12 -11 4 -6 11 -7 17 -4 6 4 8 2 4 -4 -3 -6 2 -18 11 -28 18 -18 19 -21
22 -50 0 -8 5 -13 10 -9 5 3 12 -4 16 -15 3 -11 11 -20 17 -20 6 0 8 -3 5 -7
-4 -3 2 -12 13 -20 11 -8 20 -25 20 -40 0 -18 4 -24 14 -20 10 4 16 -2 18 -16
2 -12 8 -21 14 -20 6 1 11 -5 12 -13 1 -7 3 -21 4 -29 1 -8 7 -15 14 -15 6 0
14 -9 17 -21 3 -12 10 -18 15 -15 5 3 10 0 9 -7 -1 -32 4 -48 14 -42 6 4 13
-2 16 -14 3 -12 12 -21 20 -21 8 0 11 -5 8 -11 -4 -6 2 -13 14 -16 13 -3 20
-12 19 -22 -2 -11 3 -15 15 -13 13 2 17 -2 15 -15 -2 -10 2 -17 10 -15 6 1 12
-2 12 -7 0 -5 16 -26 35 -46 20 -20 33 -40 30 -44 -3 -5 2 -12 11 -15 10 -4
13 -2 8 7 -4 7 -3 9 2 4 5 -5 10 -13 10 -18 1 -5 2 -14 3 -20 0 -5 5 -7 11 -4
5 3 10 0 10 -7 0 -15 43 -58 59 -58 6 0 8 -7 4 -17 -5 -12 -2 -15 10 -10 12 5
17 1 17 -13 0 -11 6 -19 13 -18 6 2 11 -3 9 -10 -1 -7 5 -15 15 -19 21 -8 53
-40 53 -54 0 -5 3 -8 8 -6 8 4 58 -45 54 -53 -1 -3 4 -5 11 -5 6 0 12 -7 12
-15 0 -8 11 -17 25 -21 14 -4 19 -7 12 -8 -7 -1 -11 -5 -7 -11 3 -5 13 -6 22
-3 12 5 14 3 8 -7 -6 -10 -4 -12 8 -7 11 4 14 2 10 -9 -3 -9 2 -14 16 -14 12
0 21 -6 21 -15 0 -8 9 -15 20 -15 14 0 18 -5 13 -17 -5 -12 -2 -15 9 -10 11 4
18 -2 23 -16 6 -22 6 -22 15 -2 8 19 9 18 10 -5 2 -14 2 -29 1 -33 -1 -5 3 -6
9 -2 6 3 8 12 4 18 -3 7 1 4 9 -5 8 -10 19 -18 26 -18 6 0 11 -7 11 -16 0 -8
5 -12 10 -9 6 3 14 -4 19 -17 6 -13 10 -17 10 -10 1 10 4 10 15 0 8 -7 11 -17
8 -22 -3 -5 2 -7 11 -3 16 6 22 -4 18 -27 -1 -5 6 -3 15 5 12 9 15 9 10 2 -4
-7 -3 -13 2 -13 5 0 19 -9 32 -20 13 -11 29 -20 36 -20 7 0 16 -4 19 -10 3 -6
-1 -7 -12 -4 -17 5 -17 5 0 -6 9 -6 22 -8 27 -5 6 3 10 -1 10 -9 0 -9 8 -16
19 -16 11 0 27 -9 35 -21 8 -12 19 -18 24 -15 5 3 12 -4 15 -15 3 -12 10 -18
16 -14 9 5 15 -5 13 -26 0 -3 13 -4 29 -3 24 2 29 -2 29 -19 0 -16 3 -18 9 -8
6 9 11 10 15 2 4 -6 11 -9 16 -6 5 3 14 -4 20 -15 6 -11 15 -18 20 -15 12 7
38 -6 41 -20 1 -5 10 -9 19 -7 9 1 23 -5 31 -15 13 -17 13 -17 -6 -3 -18 14
-19 14 -7 -2 8 -9 20 -14 28 -11 8 3 14 1 14 -5 0 -14 57 -35 72 -26 7 4 10 4
6 -1 -11 -12 11 -35 26 -29 8 3 16 -5 20 -18 5 -19 8 -20 16 -8 5 8 10 10 10
4 0 -7 6 -12 13 -11 39 1 49 -3 38 -17 -9 -11 -5 -13 21 -10 19 3 37 -1 43 -8
14 -18 50 -45 42 -32 -3 6 1 11 9 11 8 0 13 -6 10 -13 -2 -6 5 -14 16 -17 13
-4 17 -10 12 -18 -4 -8 -3 -10 5 -5 6 4 9 11 7 15 -3 4 1 8 9 8 8 0 12 -4 9
-9 -3 -4 -2 -13 2 -20 5 -8 10 -6 15 8 6 15 8 15 8 3 1 -11 9 -15 26 -13 16 1
29 -4 35 -16 6 -11 18 -17 30 -15 11 2 23 -1 26 -7 5 -7 2 -8 -6 -3 -9 5 -11
4 -6 -4 6 -9 11 -9 24 1 12 10 14 10 8 1 -7 -13 -3 -15 46 -16 15 -1 26 -4 26
-7 -2 -18 4 -23 12 -10 8 13 10 12 10 -3 0 -14 5 -17 20 -12 13 4 20 2 20 -7
0 -7 16 -18 35 -24 19 -6 32 -8 30 -4 -2 3 6 7 18 7 17 2 18 0 7 -7 -19 -12
-7 -23 27 -24 19 -1 27 -6 25 -16 -1 -10 2 -9 13 4 14 18 20 15 16 -7 -1 -5 4
-7 11 -4 7 2 12 9 11 15 -2 6 4 9 13 5 13 -5 13 -7 2 -14 -9 -6 -1 -9 22 -10
19 -1 38 -1 43 0 4 0 7 -5 7 -12 0 -8 6 -14 13 -15 6 0 29 -2 50 -3 20 -1 37
-7 37 -13 0 -6 5 -4 10 4 8 13 10 12 10 -2 0 -14 9 -18 39 -18 23 0 41 -5 44
-13 3 -8 18 -13 36 -12 17 1 31 -1 31 -4 0 -3 29 -6 64 -6 48 0 62 -3 55 -11
-7 -8 2 -12 33 -14 86 -3 89 -4 84 -16 -3 -8 1 -11 9 -8 8 3 19 2 26 -2 7 -4
41 -7 76 -6 53 1 63 -2 64 -16 0 -14 2 -13 8 3 8 19 8 19 19 0 10 -18 11 -18
12 -2 0 9 5 17 11 17 6 0 9 -6 6 -13 -3 -8 4 -14 16 -15 17 -1 19 1 7 8 -8 5
-10 10 -5 10 6 0 15 -4 21 -10 5 -5 58 -11 117 -12 59 -2 107 -7 107 -12 0 -4
-8 -5 -17 -2 -16 5 -15 4 1 -9 19 -14 41 -11 31 5 -3 5 -1 12 5 15 6 4 10 3 9
-2 -4 -22 2 -25 16 -7 9 12 13 13 10 4 -4 -11 1 -16 16 -17 15 -1 19 2 15 15
-5 13 -2 12 10 -3 11 -14 18 -16 21 -8 4 10 8 10 18 -1 10 -10 25 -11 54 -6
22 4 43 5 46 2 7 -8 265 -8 265 -1 0 3 12 4 28 2 33 -5 48 -5 130 0 40 2 62 0
62 -7 0 -8 2 -8 8 0 4 6 21 10 39 9 18 -1 30 2 27 7 -3 5 -11 5 -17 2 -7 -4
-8 -3 -4 2 5 5 32 10 60 11 135 4 177 8 181 18 2 7 39 11 99 11 55 -1 93 3 89
8 -3 5 2 6 12 3 11 -4 15 -3 11 4 -4 6 -14 8 -23 4 -9 -3 -13 -2 -8 2 7 8 24
9 124 12 25 1 41 5 37 11 -3 5 -12 7 -20 3 -8 -3 -15 -3 -15 0 0 14 31 14 45
1 12 -13 15 -13 15 -1 0 10 14 14 53 15 75 2 87 4 81 14 -3 5 -10 5 -16 2 -7
-4 -8 -2 -4 5 9 13 37 11 48 -4 5 -6 8 -5 8 3 0 7 14 12 36 12 27 0 35 4 31
14 -4 10 3 13 23 11 16 -1 40 3 54 10 21 11 24 11 19 -3 -4 -10 -2 -13 5 -8 7
4 12 13 12 20 0 9 15 12 45 12 25 -1 45 3 45 8 0 4 7 6 15 2 8 -3 14 -2 14 2
-3 20 3 23 18 11 14 -12 16 -12 8 0 -6 11 -4 13 8 8 9 -3 19 -2 22 4 4 5 10 7
15 4 5 -3 12 1 17 8 4 7 18 14 31 14 44 2 57 4 45 10 -22 8 -14 20 12 18 14
-2 25 1 25 7 0 6 6 5 15 -2 12 -10 15 -10 15 3 0 9 5 19 12 23 7 5 8 3 3 -7
-8 -12 -6 -12 8 0 9 7 24 10 33 7 10 -4 18 0 21 12 3 14 13 19 39 17 19 -1 37
2 40 7 3 5 10 5 16 2 7 -4 8 -2 4 4 -4 6 -14 9 -24 6 -13 -4 -14 -3 -4 4 7 5
29 8 48 7 25 -1 33 2 30 12 -6 14 36 29 53 19 5 -4 12 -2 16 4 3 5 0 10 -7 10
-10 0 -9 3 2 10 9 6 17 5 22 -3 6 -9 8 -9 8 1 0 7 8 12 18 10 11 -2 16 3 14
13 -1 9 4 16 13 16 8 0 11 -5 8 -11 -3 -6 0 -5 8 2 7 6 22 12 34 12 16 0 17 2
5 10 -17 11 -18 10 30 15 19 2 39 10 45 19 7 8 23 13 38 12 15 -2 27 1 27 5 0
5 -6 9 -12 9 -7 0 -5 5 5 11 10 6 21 8 24 5 4 -3 13 3 20 14 8 11 22 19 31 18
9 -2 16 2 15 9 -1 6 4 14 13 17 10 4 13 2 8 -7 -5 -8 -2 -7 9 2 9 7 17 10 18
5 0 -5 4 1 9 13 6 15 15 21 25 17 8 -3 15 -1 15 6 0 6 4 9 9 6 5 -3 12 1 15 9
3 8 9 15 13 14 24 -4 43 3 43 15 0 10 7 12 22 8 17 -4 20 -2 14 13 -5 15 -4
16 9 5 13 -11 16 -11 13 1 -2 8 4 13 15 13 10 -1 17 5 17 16 0 14 7 18 25 15
19 -2 25 2 25 16 0 11 7 19 16 19 8 0 12 4 9 10 -3 5 0 10 8 10 8 0 20 7 27
15 7 8 21 15 31 15 10 0 23 9 29 21 7 11 14 18 17 15 4 -3 12 3 20 14 8 11 23
20 33 20 13 0 17 5 14 15 -4 10 0 13 16 10 18 -3 21 -1 17 15 -3 11 -1 18 3
15 12 -8 41 6 34 16 -5 8 18 14 40 10 5 -1 3 5 -4 14 -11 13 -10 14 5 9 14 -6
16 -4 10 6 -6 10 -4 12 8 7 11 -4 17 -1 17 8 0 7 9 17 20 20 11 3 20 13 20 20
0 9 6 12 17 8 11 -4 14 -3 9 6 -5 8 -1 14 13 18 11 3 19 9 16 13 -5 7 31 25
45 22 3 0 8 8 12 19 4 11 12 17 18 14 5 -3 10 3 10 14 0 14 5 19 15 15 9 -4
15 0 15 9 0 8 7 17 15 21 8 3 15 12 15 20 0 10 6 13 17 9 12 -5 15 -2 10 10
-3 9 -2 17 4 17 17 0 79 66 79 85 0 9 4 14 10 10 10 -6 50 29 50 45 0 5 7 10
15 10 8 0 15 6 15 13 0 7 9 18 20 25 12 7 18 18 14 24 -5 8 -2 9 10 5 12 -5
16 -2 14 10 -2 10 3 18 10 19 25 3 27 5 12 14 -10 7 -11 10 -2 11 33 4 37 6
34 17 -1 7 3 12 9 12 6 0 8 7 5 16 -4 12 -2 15 9 10 10 -4 15 1 15 14 0 13 7
20 19 20 12 0 18 7 17 17 0 10 6 18 14 18 8 1 14 6 12 13 -1 7 5 12 14 12 10
0 14 6 10 15 -3 9 1 15 11 15 13 0 13 3 3 15 -11 13 -10 14 4 9 12 -4 16 0 16
15 0 12 6 21 16 21 8 0 12 5 9 11 -4 6 3 13 14 16 12 3 20 11 18 17 -7 18 12
46 31 46 14 0 15 2 2 10 -12 8 -12 10 2 15 9 4 18 16 21 27 3 11 10 17 17 13
6 -3 10 -3 9 2 -1 4 0 11 1 16 1 4 3 13 4 20 1 6 7 11 14 9 7 -1 12 7 12 18 0
11 7 20 15 20 13 0 21 25 16 53 0 4 6 7 14 7 10 0 15 10 15 31 0 16 4 28 9 24
12 -7 21 7 23 38 1 16 7 23 15 20 7 -3 13 2 13 11 0 24 34 85 48 86 6 0 12 4
12 10 0 5 -8 7 -17 4 -17 -5 -17 -5 0 6 9 6 17 18 17 25 0 8 6 14 13 13 6 -2
11 5 9 15 -2 9 2 17 7 17 6 0 8 7 5 15 -4 10 0 15 12 16 18 0 17 1 -1 9 -15 6
-16 9 -4 9 20 1 58 79 50 105 -1 5 4 4 12 -2 12 -10 13 -8 9 13 -3 16 0 25 8
25 7 0 10 8 7 20 -3 11 0 18 7 17 6 -1 10 8 9 21 -2 14 3 22 12 22 8 0 16 9
16 20 1 11 3 25 4 30 1 6 3 17 4 26 0 8 5 13 9 10 5 -3 9 0 10 7 1 7 3 26 5
42 6 45 6 47 17 40 6 -4 10 -3 9 2 -1 4 -1 23 0 42 1 24 5 32 15 28 7 -3 13 0
13 6 -1 52 5 76 21 80 16 4 16 5 0 6 -10 0 -18 6 -18 11 0 6 6 9 13 8 7 -2 13
12 15 37 2 22 9 46 15 54 6 7 13 33 14 58 2 24 10 51 18 59 20 21 19 30 -2 13
-15 -12 -16 -12 -10 4 4 10 7 21 7 23 0 3 4 3 8 0 8 -5 15 46 14 96 -1 10 3
20 9 23 5 4 6 -2 2 -12 -3 -10 -3 -15 2 -11 4 4 10 40 12 80 2 40 9 79 16 87
9 12 9 13 -1 7 -9 -6 -11 -1 -8 18 3 14 8 31 13 38 8 13 10 35 13 121 1 28 7
47 13 47 9 0 9 2 1 8 -16 10 -13 101 3 95 7 -3 10 3 8 14 -2 10 -4 22 -4 26
-1 5 -7 5 -13 2 -7 -4 -5 0 5 8 22 18 22 28 0 21 -17 -5 -17 -5 0 6 19 12 24
36 5 24 -8 -5 -8 -3 -2 7 12 19 12 302 -1 311 -7 5 -6 8 0 8 12 0 12 46 0 57
-4 5 -5 3 -1 -4 3 -6 3 -14 -2 -17 -4 -2 -8 6 -8 19 0 16 5 21 16 18 10 -3 9
0 -4 11 -18 14 -15 21 7 17 5 -1 6 3 2 9 -3 6 -11 8 -16 5 -5 -4 -9 1 -9 10 0
9 4 14 9 10 15 -8 21 9 9 25 -8 12 -8 11 -3 -5 4 -14 3 -17 -4 -10 -6 6 -11
40 -12 77 -1 46 -5 65 -13 61 -6 -4 -5 1 3 10 12 15 9 21 -9 19 -4 0 -7 9 -7
21 -1 12 -4 54 -6 92 -3 39 -5 83 -6 98 0 16 -5 26 -11 22 -9 -6 -15 43 -10
89 1 10 -3 15 -8 12 -16 -10 -21 6 -23 77 -2 56 -4 64 -14 50 -12 -16 -13 -16
-12 2 1 86 -3 107 -19 101 -10 -4 -14 -2 -11 6 2 7 10 12 16 10 7 -1 10 2 6 8
-3 6 -11 8 -16 5 -5 -4 -9 10 -9 29 0 26 -4 36 -16 36 -11 0 -14 5 -10 16 4 9
-1 28 -10 42 -9 14 -11 21 -4 17 8 -5 11 -3 8 6 -3 8 -10 13 -15 12 -5 -1 -9
15 -8 35 0 20 -6 42 -13 47 -7 6 -14 24 -16 40 -3 18 -9 29 -17 27 -9 -2 -9 1
2 14 8 10 9 15 2 11 -7 -5 -14 4 -19 25 -4 18 -7 36 -6 40 1 4 -5 5 -14 1 -8
-3 -14 -2 -13 3 1 5 1 20 0 34 -1 20 -3 22 -11 10 -8 -12 -10 -10 -11 10 -1
14 -1 31 0 38 1 6 -5 12 -14 12 -15 0 -19 10 -16 43 1 9 -3 17 -9 17 -7 0 -9
7 -6 16 3 8 2 12 -4 9 -6 -3 -11 -1 -11 4 -1 6 -3 16 -4 21 -1 6 -3 15 -4 21
0 6 -7 9 -15 6 -9 -4 -12 2 -10 18 1 13 -4 26 -12 29 -8 3 -14 17 -14 31 0 16
-6 25 -15 25 -8 0 -14 3 -13 8 3 14 -14 42 -23 36 -5 -3 -9 9 -9 26 0 22 -4
31 -13 27 -12 -4 -15 5 -19 50 -1 7 -6 11 -12 10 -6 -1 -12 10 -14 25 -2 16
-11 30 -22 33 -11 4 -17 12 -13 21 3 8 -1 14 -11 14 -9 0 -15 3 -15 8 1 4 1
16 0 27 -1 17 -3 18 -11 5 -8 -12 -10 -10 -11 10 -1 14 -1 28 0 32 0 5 -2 7
-7 7 -23 -4 -32 4 -32 29 0 21 -2 24 -10 12 -8 -13 -10 -12 -10 3 0 9 -6 17
-12 17 -9 0 -8 4 2 10 13 8 13 10 -2 10 -10 0 -19 12 -24 33 -6 28 -8 29 -15
12 -7 -18 -8 -17 -8 6 -1 15 -8 29 -16 33 -8 3 -15 12 -15 21 0 8 -7 15 -15
15 -8 0 -15 9 -15 20 0 11 -5 19 -12 17 -7 -1 -12 5 -13 13 0 9 -8 14 -18 12
-13 -2 -17 2 -15 15 2 10 -3 18 -9 18 -7 0 -12 2 -11 5 4 12 -24 50 -37 50 -9
0 -12 6 -9 15 4 10 0 15 -15 15 -13 0 -19 5 -15 14 3 8 0 17 -7 22 -8 5 -10 3
-4 -6 5 -9 4 -11 -3 -6 -7 4 -12 14 -12 23 0 9 -6 13 -14 10 -10 -4 -13 -1
-10 7 7 17 -37 64 -54 59 -7 -3 -10 1 -6 10 3 10 -2 18 -16 22 -12 4 -19 13
-16 20 3 9 -2 11 -15 8 -14 -4 -18 -1 -13 10 3 10 -2 18 -17 22 -17 6 -19 9
-8 16 13 8 7 11 -18 8 -4 0 -10 8 -14 18 -3 10 -12 18 -20 18 -8 0 -13 8 -11
18 2 11 -2 15 -13 11 -10 -4 -15 0 -15 15 0 14 -5 19 -15 15 -9 -4 -15 0 -15
10 0 9 -7 16 -15 16 -8 0 -15 7 -15 16 0 10 -6 14 -15 10 -10 -4 -15 1 -15 14
0 13 -5 18 -15 14 -8 -4 -15 -1 -15 6 0 6 -4 9 -9 5 -5 -3 -12 -1 -15 4 -4 5
2 12 11 14 12 3 8 5 -9 6 -15 0 -30 6 -34 13 -5 7 -2 8 7 3 10 -5 11 -5 4 3
-5 5 -19 12 -30 14 -11 2 -19 10 -18 16 2 7 -4 12 -12 12 -8 0 -15 5 -15 10 0
6 -10 20 -22 32 -16 16 -20 17 -15 5 3 -9 2 -17 -3 -17 -6 0 -10 7 -10 15 0 8
-7 15 -15 15 -8 0 -15 7 -15 15 0 8 -7 16 -15 16 -35 3 -40 5 -37 17 1 7 -3
12 -9 12 -5 0 -7 4 -4 10 3 6 -1 7 -9 4 -9 -3 -16 -1 -16 5 0 6 -7 11 -15 11
-8 0 -15 6 -15 14 0 8 -14 17 -30 21 -17 4 -28 11 -24 16 3 5 -4 9 -16 9 -12
0 -18 4 -15 11 4 6 -2 13 -14 16 -12 3 -21 12 -21 19 0 8 -10 14 -24 14 -28 0
-43 16 -24 23 7 3 3 6 -9 7 -38 4 -41 5 -50 14 -5 5 -3 6 5 2 6 -4 12 -2 12 3
0 6 -11 11 -24 11 -13 0 -27 8 -30 17 -6 15 -8 15 -16 3 -7 -10 -10 -11 -10
-2 0 6 -7 12 -15 12 -8 0 -15 7 -15 15 0 8 -9 15 -19 15 -10 0 -21 7 -25 15
-3 9 -18 15 -35 15 -16 0 -33 5 -37 12 -5 8 -2 9 10 5 10 -4 15 -3 11 3 -3 6
-17 10 -30 10 -12 0 -25 7 -29 15 -3 8 -9 14 -13 13 -14 -4 -53 13 -53 23 0 5
-9 9 -19 9 -10 0 -21 7 -25 15 -3 10 -19 15 -46 15 -27 0 -39 4 -38 13 2 7
-10 13 -29 15 -19 2 -33 9 -33 16 0 8 -17 16 -40 20 -22 3 -40 11 -40 16 0 6
-9 10 -20 10 -11 0 -19 6 -18 13 2 7 -13 14 -42 17 -25 3 -44 10 -42 15 1 6
-13 12 -33 15 -20 3 -35 10 -35 15 0 6 -18 11 -40 13 -28 2 -40 8 -40 19 0 13
-2 14 -17 2 -11 -10 -14 -10 -9 -1 5 8 0 12 -17 12 -14 0 -30 6 -37 14 -6 8
-24 16 -38 18 -17 2 -26 8 -24 17 3 12 1 12 -14 0 -12 -9 -15 -9 -10 -1 5 8
-2 12 -26 13 -18 1 -37 1 -42 0 -5 -1 -6 4 -3 12 3 8 -3 13 -18 13 -14 0 -21
-4 -17 -10 3 -6 -1 -5 -10 2 -9 7 -34 14 -56 15 -27 1 -38 6 -35 15 4 8 -7 12
-37 12 -30 0 -39 3 -34 13 6 10 4 10 -7 0 -17 -17 -35 -17 -21 0 8 10 0 13
-40 15 -52 2 -71 8 -64 20 2 4 -26 9 -62 11 -37 1 -70 8 -74 14 -6 9 -8 9 -8
0 0 -7 -5 -13 -11 -13 -6 0 -9 6 -6 14 4 9 -3 14 -21 14 -97 1 -122 5 -122 21
0 14 -2 14 -10 1 -5 -8 -10 -10 -10 -4 0 5 -10 10 -22 11 -13 0 -54 2 -91 3
-43 2 -64 6 -55 11 10 7 9 9 -4 9 -9 0 -19 -6 -21 -12 -4 -9 -6 -8 -6 2 -1 12
-16 16 -73 17 -133 4 -186 8 -194 15 -3 4 3 6 14 3 12 -2 24 -1 26 3 2 4 -15
8 -39 8 -24 0 -41 -4 -39 -8 3 -5 10 -6 15 -3 5 4 9 1 9 -4 0 -15 -16 -14 -32
2 -19 18 -94 16 -90 -3 2 -11 -2 -10 -12 3 -8 10 -17 14 -20 8 -6 -10 -24 -10
-41 1 -19 12 -289 6 -304 -6 -11 -8 -13 -8 -7 2 9 15 -6 16 -22 0 -7 -7 -12
-8 -12 -2 0 5 -15 10 -34 10 -19 0 -32 -4 -30 -8 5 -8 -1 -10 -54 -12 -19 -1
-36 3 -39 8 -4 5 -1 6 5 2 6 -3 13 -3 16 2 3 5 -1 9 -9 9 -8 0 -16 -3 -16 -6z
m-24 -132 c-4 -5 6 -8 21 -7 14 2 29 8 31 16 4 9 9 7 20 -8 8 -11 19 -18 24
-14 14 8 0 26 -14 18 -7 -4 -9 -3 -4 1 4 5 41 10 83 11 65 1 74 -1 70 -15 -5
-12 -2 -11 9 3 12 17 17 17 32 5 9 -8 14 -9 10 -3 -10 17 235 17 245 1 6 -9 8
-9 8 1 0 6 7 12 15 12 8 0 15 -6 15 -12 0 -8 3 -9 8 -3 9 13 74 17 67 4 -4 -5
-1 -9 4 -9 6 0 11 5 11 10 0 15 24 7 32 -10 5 -12 7 -11 7 3 1 10 6 15 11 12
6 -4 8 -10 6 -14 -3 -3 21 -7 52 -8 185 -4 254 -10 260 -20 4 -7 45 -13 100
-15 65 -2 91 -6 88 -15 -3 -7 4 -10 20 -7 13 2 24 1 24 -3 0 -5 27 -8 60 -7
34 0 63 -3 65 -7 3 -4 -6 -6 -20 -5 -13 2 -22 -1 -19 -6 3 -5 11 -8 17 -7 7 1
40 1 75 0 48 -1 61 -4 56 -13 -6 -10 -4 -10 8 0 14 11 18 10 26 -3 6 -11 25
-17 58 -19 84 -6 81 -5 64 -16 -11 -7 -5 -10 25 -11 22 -1 43 -1 48 0 4 0 6
-4 5 -11 -2 -6 6 -13 17 -15 16 -3 17 -2 5 6 -22 15 -7 13 25 -3 15 -8 43 -13
62 -11 31 3 32 2 16 -11 -16 -12 -15 -13 19 -14 20 0 38 -5 40 -11 3 -10 42
-19 91 -22 10 -1 15 -7 13 -14 -3 -7 -1 -13 4 -13 6 0 10 6 11 13 0 10 2 10 6
0 2 -7 13 -13 24 -13 10 0 19 -7 19 -15 0 -14 36 -21 77 -16 6 1 15 -4 19 -10
4 -7 3 -9 -4 -5 -6 3 -13 3 -16 -2 -2 -4 11 -9 31 -10 19 -2 42 -9 50 -17 13
-13 42 -20 66 -16 4 1 10 -6 13 -14 4 -8 15 -15 26 -15 12 0 17 -4 12 -12 -5
-7 -3 -8 7 -2 20 12 40 14 33 3 -3 -5 -10 -7 -15 -4 -5 4 -9 2 -9 -4 0 -5 15
-11 33 -13 19 -2 31 -8 29 -15 -1 -8 9 -13 27 -13 16 0 31 -6 34 -14 3 -8 22
-16 44 -18 24 -2 37 -8 35 -15 -1 -8 9 -13 28 -13 20 0 30 -5 30 -15 0 -13 25
-21 53 -16 12 2 8 -17 -5 -22 -7 -3 2 -6 21 -6 23 -1 32 -5 28 -14 -3 -7 3
-13 12 -14 29 -2 50 -9 58 -18 4 -4 2 -5 -4 -1 -7 4 -13 2 -13 -3 0 -6 14 -11
31 -11 17 0 28 -4 24 -10 -3 -5 -3 -10 2 -11 31 -3 49 -10 59 -23 6 -9 16 -16
22 -16 5 0 12 -7 16 -15 3 -8 14 -15 25 -15 11 0 23 -5 27 -12 5 -7 2 -8 -7
-3 -10 5 -11 5 -4 -3 6 -5 19 -12 30 -14 11 -2 19 -10 17 -16 -1 -7 3 -11 10
-10 7 2 12 -2 13 -9 0 -6 4 -15 9 -20 5 -4 6 -3 2 4 -3 6 -2 14 4 18 5 3 10
-1 10 -9 0 -9 9 -16 20 -16 11 0 19 -5 18 -12 -3 -11 1 -13 35 -17 8 -1 7 -4
-3 -11 -8 -5 -12 -10 -7 -11 4 -1 12 -3 17 -4 6 -1 17 -3 25 -4 8 0 15 -8 15
-17 0 -10 6 -14 15 -10 14 5 20 -6 16 -28 -1 -5 5 -6 13 -3 8 3 22 -1 33 -9
17 -13 17 -14 -2 -8 -20 7 -20 7 0 -9 10 -8 26 -12 34 -9 10 4 13 1 8 -11 -5
-13 -1 -17 14 -17 11 0 18 -4 15 -9 -3 -5 3 -11 14 -14 11 -3 20 -12 20 -21 0
-9 4 -16 10 -16 5 0 7 8 5 18 -3 9 2 2 10 -17 12 -25 21 -32 35 -28 15 4 20 0
20 -14 0 -12 7 -19 20 -19 11 0 20 -7 20 -16 0 -8 4 -13 9 -10 4 3 17 -1 27
-9 18 -15 18 -15 -1 -9 -16 5 -17 4 -5 -5 8 -6 23 -11 33 -11 9 0 18 -7 18
-15 1 -8 3 -19 4 -25 1 -5 3 -13 4 -17 1 -5 6 -1 11 7 9 13 10 13 11 0 1 -8 1
-18 0 -22 0 -5 6 -8 14 -8 8 0 15 -5 15 -11 0 -6 7 -9 14 -6 10 4 13 1 9 -9
-3 -7 0 -14 7 -14 6 0 8 -5 4 -12 -5 -8 -2 -9 9 -5 13 5 17 0 17 -21 0 -19 3
-23 9 -14 7 11 9 10 15 -3 3 -9 10 -14 15 -10 5 3 13 0 17 -6 4 -8 3 -9 -4 -5
-7 4 -12 2 -12 -3 0 -6 5 -11 10 -11 6 0 10 -8 10 -17 0 -13 2 -15 8 -5 6 9
12 6 20 -13 6 -14 16 -25 22 -25 5 0 10 -7 10 -15 0 -8 7 -15 15 -15 8 0 14
-5 12 -12 -1 -7 4 -13 11 -14 26 -3 27 -5 12 -14 -13 -8 -11 -11 8 -16 20 -6
26 -16 23 -36 0 -4 7 -4 17 -1 15 6 15 5 3 -11 -8 -9 -10 -16 -5 -15 5 1 18 1
29 0 15 -1 17 -3 7 -10 -11 -7 -10 -9 3 -15 10 -3 13 -11 9 -18 -5 -8 0 -7 11
2 10 8 16 10 12 3 -10 -16 2 -43 19 -43 8 0 14 -7 14 -15 0 -9 7 -18 15 -21 8
-4 15 -13 15 -20 0 -8 7 -17 15 -20 8 -4 15 -16 15 -29 0 -13 7 -25 15 -29 13
-5 14 -2 5 17 -10 20 -10 20 3 4 8 -9 13 -29 11 -43 -2 -22 0 -23 14 -12 10 8
13 9 9 1 -4 -7 0 -16 10 -22 10 -6 12 -11 6 -11 -7 0 -13 -5 -13 -11 0 -5 4
-8 8 -5 10 6 52 -47 52 -64 0 -7 10 -21 23 -32 12 -11 15 -16 7 -12 -8 4 -5
-3 8 -16 14 -13 21 -28 17 -37 -4 -13 -3 -14 10 -3 13 11 14 10 9 -4 -3 -9 -1
-16 6 -16 6 0 8 -5 5 -11 -4 -6 1 -16 11 -23 10 -8 15 -20 11 -30 -6 -14 3
-21 26 -17 6 1 10 -19 10 -62 0 -14 2 -15 15 -5 11 9 13 9 9 1 -10 -17 14 -67
25 -51 5 8 8 -1 8 -24 0 -27 4 -38 15 -38 10 0 15 -10 15 -30 0 -20 5 -30 15
-30 10 0 15 -10 15 -30 0 -16 5 -30 10 -30 6 0 10 -9 10 -19 0 -11 8 -27 18
-37 18 -18 19 -21 21 -55 0 -11 5 -18 9 -15 15 9 31 -61 18 -74 -8 -9 -6 -11
9 -8 17 2 20 -2 17 -29 -1 -24 2 -33 13 -33 11 0 15 -11 15 -39 0 -27 5 -41
16 -45 13 -5 14 -9 4 -21 -11 -13 -10 -14 1 -10 11 4 14 -4 12 -36 -2 -32 1
-40 12 -35 8 3 15 1 15 -4 0 -6 -5 -10 -11 -10 -6 0 -4 -6 4 -14 9 -9 12 -26
9 -42 -3 -18 -1 -25 6 -20 6 3 14 1 18 -5 4 -8 3 -9 -4 -5 -7 4 -12 1 -12 -9
0 -9 4 -14 8 -11 4 2 8 -3 9 -12 8 -87 11 -104 19 -110 12 -9 15 -26 17 -83 1
-32 5 -44 12 -39 10 8 14 -37 18 -177 1 -12 4 -20 8 -17 15 9 19 -15 20 -115
0 -55 4 -101 9 -101 4 0 6 16 4 36 -1 20 0 33 3 30 10 -10 11 -116 1 -116 -5
0 -7 4 -4 8 2 4 1 14 -3 21 -5 7 -8 -4 -7 -27 0 -22 4 -38 9 -35 4 2 4 9 1 15
-4 6 -3 8 3 5 15 -9 15 -337 0 -356 -8 -10 -8 -12 -1 -8 17 10 13 -56 -5 -69
-11 -9 -12 -12 -1 -19 9 -5 11 -4 6 3 -4 7 -3 12 2 12 12 0 9 -106 -2 -117 -5
-4 -6 -2 -2 5 4 6 2 12 -3 12 -6 0 -11 -7 -11 -15 0 -8 6 -15 13 -15 9 0 9 -2
0 -8 -7 -4 -13 -43 -14 -104 -2 -53 -7 -94 -11 -92 -5 3 -6 10 -3 15 4 5 2 9
-3 9 -5 0 -9 -11 -9 -25 -1 -16 4 -22 11 -18 7 5 7 2 -1 -8 -6 -8 -13 -45 -14
-82 -2 -48 -6 -67 -16 -67 -7 0 -13 -5 -13 -11 0 -5 6 -7 13 -3 9 6 9 5 0 -7
-7 -8 -14 -38 -15 -66 -2 -39 -6 -49 -17 -45 -8 3 -12 1 -9 -4 4 -5 3 -28 -2
-52 -4 -24 -3 -42 2 -42 5 0 6 -5 3 -10 -4 -6 -10 -8 -15 -5 -4 3 -11 -2 -14
-11 -4 -10 -2 -13 7 -8 9 5 9 4 0 -7 -7 -7 -13 -26 -13 -41 0 -15 -6 -28 -12
-29 -10 0 -10 -2 0 -6 6 -2 12 -9 12 -14 0 -6 -4 -7 -10 -4 -5 3 -11 0 -12 -7
0 -7 -2 -17 -3 -23 -2 -5 -3 -23 -4 -40 -1 -21 -4 -26 -10 -16 -10 15 -18 5
-17 -24 1 -11 -8 -25 -19 -32 l-20 -12 20 -1 c16 0 17 -2 6 -9 -8 -5 -16 -24
-17 -43 -3 -44 -4 -46 -13 -24 -7 19 -8 19 -13 -2 -4 -12 -2 -22 3 -22 5 0 4
-11 -1 -25 -5 -14 -7 -25 -3 -25 4 0 -1 -6 -11 -13 -10 -8 -20 -24 -21 -38 -4
-39 -5 -40 -15 -34 -5 3 -10 -1 -10 -9 0 -8 -8 -20 -18 -26 -15 -10 -15 -11 3
-6 20 6 20 6 1 -9 -15 -11 -16 -15 -5 -16 10 0 10 -2 1 -6 -6 -2 -12 -13 -12
-23 0 -25 -17 -35 -23 -13 -3 10 -5 -3 -6 -29 -1 -38 -4 -46 -16 -41 -9 3 -15
2 -14 -3 5 -28 -3 -54 -16 -54 -8 0 -15 -4 -15 -10 0 -5 8 -6 17 -3 10 4 5 -6
-12 -23 -31 -30 -35 -36 -35 -55 0 -6 -8 -8 -17 -5 -15 5 -15 4 1 -9 17 -13
18 -15 3 -15 -9 0 -17 -5 -17 -11 0 -7 -8 -18 -17 -25 -17 -13 -17 -13 0 -14
15 0 15 -2 -3 -20 -11 -11 -26 -20 -32 -20 -7 0 -4 -8 7 -16 l20 -16 -20 4
c-15 2 -19 -2 -17 -16 3 -14 -1 -17 -13 -12 -9 3 -14 2 -10 -3 8 -14 -6 -41
-22 -41 -8 0 -12 -4 -9 -9 9 -14 -4 -41 -20 -41 -8 0 -11 -6 -8 -15 4 -9 0
-15 -10 -15 -9 0 -17 -7 -17 -15 -1 -8 -3 -19 -4 -25 -1 -5 -3 -13 -4 -17 -1
-5 -6 -1 -11 7 -8 12 -10 9 -10 -12 0 -18 -5 -28 -15 -28 -8 0 -15 -9 -15 -20
0 -11 -9 -28 -19 -37 -11 -9 -18 -20 -15 -25 3 -4 -2 -8 -10 -8 -9 0 -17 -7
-17 -15 -1 -8 -2 -21 -3 -27 0 -7 -7 -14 -13 -14 -7 -1 -20 -2 -29 -3 -8 0
-12 -6 -9 -11 4 -6 11 -7 17 -4 7 4 8 2 4 -5 -4 -6 -12 -9 -17 -6 -5 4 -9 -1
-9 -9 0 -9 -5 -16 -11 -16 -5 0 -7 6 -3 13 4 7 3 9 -2 4 -9 -9 -10 -13 -13
-42 0 -8 -10 -15 -21 -15 -14 0 -18 -5 -13 -17 5 -12 2 -15 -10 -10 -12 5 -17
1 -17 -13 0 -11 -6 -20 -14 -20 -7 0 -16 -9 -19 -21 -3 -12 -10 -18 -15 -15
-5 3 -9 -2 -8 -12 1 -11 -5 -16 -16 -14 -13 2 -16 -2 -11 -14 5 -13 3 -16 -10
-11 -13 5 -17 1 -18 -16 -1 -12 -1 -26 0 -31 1 -5 -6 -3 -15 5 -10 8 -15 9
-11 3 7 -12 -19 -54 -35 -54 -15 0 -58 -43 -58 -59 0 -7 -6 -11 -15 -7 -8 3
-14 2 -14 -2 3 -18 -3 -46 -8 -34 -5 13 -24 17 -22 5 3 -20 -2 -34 -11 -28 -5
3 -10 -1 -10 -10 0 -9 -4 -14 -9 -10 -5 3 -13 -4 -16 -16 -4 -12 -12 -18 -20
-15 -8 3 -17 -3 -20 -13 -3 -11 -15 -21 -26 -24 -12 -3 -18 -10 -14 -16 4 -7
-5 -11 -22 -12 -23 0 -25 -2 -9 -8 23 -9 10 -19 -21 -16 -19 1 -21 -1 -10 -14
9 -12 9 -13 0 -7 -7 4 -13 2 -13 -3 0 -6 -7 -11 -15 -11 -8 0 -15 -7 -15 -15
0 -13 -19 -20 -43 -16 -5 1 -6 -3 -2 -9 3 -5 -5 -14 -19 -20 -14 -5 -26 -16
-26 -24 0 -8 -5 -18 -12 -22 -7 -4 -8 -3 -4 4 4 7 2 12 -3 12 -6 0 -11 -7 -11
-16 0 -10 -6 -14 -15 -10 -8 3 -14 0 -12 -7 1 -7 -4 -11 -11 -9 -7 1 -15 -5
-18 -13 -3 -8 -11 -12 -17 -8 -6 4 -8 0 -4 -10 3 -9 3 -16 -1 -16 -25 4 -42
-3 -42 -17 0 -11 -5 -14 -16 -10 -12 5 -15 2 -10 -10 5 -14 4 -15 -9 -4 -13
11 -14 10 -9 -3 4 -12 1 -15 -15 -12 -11 2 -23 0 -26 -6 -4 -5 2 -9 12 -10 10
0 4 -6 -15 -13 -18 -6 -30 -15 -26 -19 4 -4 0 -7 -9 -7 -10 0 -17 -4 -17 -10
0 -5 -5 -10 -11 -10 -5 0 -7 5 -3 12 4 7 3 8 -4 4 -7 -4 -12 -14 -12 -23 0 -9
-6 -13 -15 -9 -9 3 -15 0 -15 -9 0 -8 -3 -14 -7 -14 -5 1 -12 0 -18 -1 -5 -1
-17 -3 -25 -4 -8 0 -14 -9 -12 -18 2 -12 -2 -16 -13 -12 -9 4 -18 -1 -22 -12
-6 -16 -7 -16 -14 2 -5 13 -8 14 -8 4 -1 -8 -10 -21 -22 -28 -17 -11 -20 -11
-14 0 3 7 -1 4 -9 -6 -9 -11 -26 -20 -38 -22 -13 -1 -25 -3 -28 -3 -3 -1 2 -6
10 -11 13 -8 12 -10 -5 -11 -11 -1 -23 -1 -27 0 -7 1 -12 -14 -9 -31 0 -4 -9
-5 -20 -3 -25 5 -51 -4 -43 -16 3 -5 -4 -10 -15 -10 -42 -3 -46 -4 -46 -16 0
-6 -4 -15 -8 -20 -5 -4 -8 -3 -7 2 5 24 -2 24 -27 0 -15 -14 -33 -26 -40 -26
-7 -1 -23 -2 -35 -3 -13 -1 -22 -7 -20 -14 2 -10 -12 -17 -21 -9 -2 1 -12 -5
-22 -13 -11 -9 -16 -10 -11 -2 4 6 2 12 -3 12 -6 0 -11 -7 -11 -15 0 -14 -18
-20 -49 -16 -7 2 -10 -2 -6 -8 5 -10 -7 -15 -27 -12 -5 0 -8 -3 -8 -9 0 -5 -6
-7 -14 -4 -7 3 -16 -2 -19 -10 -4 -10 -18 -16 -37 -16 -17 0 -39 -9 -50 -20
-12 -12 -25 -18 -31 -15 -5 4 -17 1 -26 -7 -12 -9 -15 -9 -9 0 10 17 -4 15
-25 -4 -10 -9 -29 -17 -41 -18 -13 -1 -23 -7 -23 -16 0 -11 -12 -14 -48 -14
-34 0 -46 -4 -43 -13 3 -7 0 -15 -6 -19 -6 -4 -8 -3 -4 4 3 6 2 13 -3 16 -5 3
-11 0 -14 -8 -4 -10 -16 -13 -36 -10 -18 3 -31 1 -31 -5 0 -6 -5 -11 -11 -11
-5 0 -7 5 -3 12 4 7 3 8 -4 4 -7 -4 -12 -13 -12 -19 0 -8 -16 -12 -45 -11 -34
0 -45 -3 -46 -15 0 -11 -2 -12 -6 -3 -2 6 -9 12 -14 12 -6 0 -7 -4 -4 -10 3
-5 -3 -11 -14 -11 -33 -2 -39 -4 -47 -11 -4 -4 -13 -3 -20 3 -9 8 -18 7 -31
-1 -15 -9 -14 -10 7 -4 19 5 22 3 14 -5 -6 -7 -38 -13 -72 -14 -33 -1 -64 -6
-69 -11 -5 -5 -2 -6 7 -1 12 6 12 5 3 -5 -13 -14 -37 -4 -27 12 4 7 2 8 -5 4
-6 -4 -9 -12 -6 -17 4 -5 -12 -9 -34 -9 -26 0 -41 -5 -41 -12 0 -10 -2 -10 -8
-1 -4 7 -17 10 -30 6 -12 -3 -19 -9 -16 -14 5 -9 -4 -10 -163 -13 -50 0 -89
-4 -86 -9 8 -13 -25 -19 -116 -21 -50 -1 -93 -5 -97 -9 -4 -3 4 -4 16 -2 13 2
29 1 36 -3 7 -4 -34 -7 -92 -7 -58 0 -108 -4 -111 -8 -3 -4 -11 -3 -19 4 -8 6
-14 8 -14 4 0 -4 -7 -2 -16 5 -12 11 -14 11 -12 1 2 -10 -26 -13 -115 -14 -64
-1 -117 2 -117 6 0 4 -7 4 -16 -1 -21 -12 -66 -3 -57 12 3 6 -3 2 -15 -8 -14
-12 -22 -14 -22 -7 0 7 -4 10 -9 7 -5 -4 -11 -1 -13 6 -2 6 -12 12 -21 14 -9
1 -15 -2 -11 -7 3 -5 10 -7 15 -4 5 4 9 1 9 -6 0 -11 -11 -10 -55 6 -15 5 -17
4 -6 -3 11 -8 -4 -10 -52 -9 -36 1 -61 4 -55 8 6 4 17 5 25 2 7 -3 13 -1 13 3
0 5 -53 10 -117 12 -65 1 -122 7 -127 12 -13 13 -29 13 -21 0 3 -6 1 -10 -4
-10 -6 0 -11 7 -11 15 0 21 -20 19 -21 -2 -1 -17 -2 -17 -6 0 -4 15 -7 16 -21
5 -13 -10 -14 -10 -8 0 6 10 -7 12 -62 10 -39 -2 -68 0 -65 5 2 4 -3 7 -12 7
-9 0 -14 4 -11 8 2 4 -12 8 -32 7 -20 0 -48 5 -61 13 -13 8 -20 9 -17 3 5 -7
-1 -11 -14 -11 -14 0 -20 5 -17 13 3 9 -14 12 -73 12 -43 0 -76 3 -74 6 6 10
-22 31 -38 28 -35 -4 -79 2 -73 11 3 5 1 11 -4 11 -6 1 -15 3 -21 4 -5 1 -29
3 -52 5 -24 1 -37 4 -30 7 19 7 14 19 -8 20 -13 1 -18 -2 -14 -10 5 -8 3 -8
-7 1 -7 6 -20 12 -29 12 -9 0 -21 5 -28 12 -6 6 -26 12 -44 13 -43 3 -61 8
-70 20 -8 11 -12 12 -59 14 -17 0 -28 5 -24 11 3 5 -1 11 -9 11 -9 1 -21 2
-27 3 -6 0 -17 10 -25 20 -10 14 -14 16 -14 5 0 -12 -2 -12 -9 0 -5 7 -14 10
-20 7 -6 -4 -11 -2 -11 5 0 8 -4 8 -15 -1 -12 -10 -15 -9 -15 7 0 13 -7 19
-22 20 -56 1 -68 4 -68 17 0 8 -8 13 -17 12 -11 0 -17 5 -15 14 2 8 0 12 -3 8
-4 -4 -17 -3 -29 3 -20 10 -20 10 -2 -5 11 -9 17 -18 14 -21 -2 -3 -13 4 -23
15 -10 11 -26 20 -37 20 -10 0 -18 7 -18 15 0 8 -3 14 -7 14 -5 -1 -19 -1 -33
0 -20 1 -22 3 -10 11 16 10 9 12 -47 13 -12 1 -25 7 -28 14 -3 9 0 11 8 7 7
-4 9 -3 4 2 -9 10 -14 11 -52 13 -14 0 -24 6 -23 13 2 7 -8 12 -22 12 -14 1
-30 10 -37 21 -6 11 -14 19 -17 18 -16 -7 -26 -2 -20 9 5 8 0 7 -11 -2 -17
-14 -18 -13 -12 3 6 15 3 17 -13 12 -13 -4 -23 0 -32 14 -7 12 -21 21 -31 21
-10 0 -15 4 -12 10 3 5 -3 10 -15 10 -12 0 -19 4 -16 9 4 5 -3 7 -14 4 -14 -4
-20 0 -20 11 0 9 -3 15 -7 15 -22 -4 -43 2 -38 10 3 5 -3 12 -14 16 -10 3 -31
18 -45 32 -19 19 -25 21 -20 8 5 -13 4 -16 -4 -11 -7 4 -12 13 -12 21 0 8 -8
12 -19 10 -15 -3 -18 1 -14 13 3 9 3 14 -1 10 -11 -9 -35 14 -29 27 2 6 -3 1
-12 -10 -17 -20 -17 -20 -10 4 6 20 4 23 -10 17 -12 -4 -18 0 -22 14 -3 11 -9
17 -14 14 -5 -3 -12 2 -15 10 -3 9 -12 16 -20 16 -8 0 -14 6 -14 13 0 9 -2 9
-9 -1 -6 -10 -10 -8 -14 8 -3 12 -10 19 -16 16 -6 -4 -20 3 -31 14 -12 12 -26
18 -33 13 -7 -4 -7 0 2 10 8 10 11 20 7 24 -3 3 -6 1 -6 -6 0 -9 -5 -9 -20 -1
-11 6 -20 17 -20 25 0 8 -6 12 -14 9 -9 -3 -17 3 -21 15 -3 12 -11 19 -16 16
-5 -4 -9 1 -9 9 0 9 -8 16 -19 16 -11 0 -27 10 -36 23 -8 12 -19 21 -23 20 -4
-2 -7 3 -7 10 0 7 -10 11 -25 9 -20 -2 -22 -1 -10 7 11 8 12 11 2 11 -15 0
-65 36 -60 43 6 8 -30 36 -38 29 -5 -4 -2 1 6 11 7 10 9 17 4 16 -25 -4 -43 3
-49 21 -3 11 -14 20 -23 21 -14 0 -13 2 3 9 19 8 19 9 -2 9 -14 1 -23 7 -23
17 0 8 -4 13 -9 10 -9 -6 -26 22 -23 37 1 4 -4 6 -10 5 -7 -2 -12 3 -10 11 2
8 -3 11 -13 8 -10 -5 -15 0 -15 14 0 12 -4 17 -11 14 -6 -4 -13 2 -16 14 -3
12 -12 21 -19 21 -8 0 -14 6 -14 14 0 8 -7 16 -15 20 -8 3 -15 12 -15 20 0 10
-6 13 -15 10 -11 -5 -13 -2 -9 10 4 11 1 16 -10 16 -9 0 -16 7 -16 15 0 8 -9
19 -20 25 -11 6 -20 20 -20 31 0 11 -4 18 -9 15 -4 -3 -17 1 -27 9 -18 15 -18
15 1 9 20 -7 20 -7 0 9 -11 8 -23 13 -27 11 -4 -3 -5 3 -1 12 4 12 3 15 -5 10
-8 -5 -12 0 -12 13 0 12 -6 21 -14 21 -7 0 -16 9 -19 21 -4 14 -10 18 -19 13
-9 -5 -8 -2 2 11 9 11 10 16 3 11 -13 -7 -16 2 -14 34 0 10 -1 11 -5 3 -10
-22 -24 -14 -24 12 0 14 -7 28 -15 31 -8 4 -15 15 -15 25 0 10 -6 19 -14 19
-7 0 -16 9 -19 21 -3 12 -10 18 -16 14 -7 -4 -11 4 -11 18 0 14 -7 28 -16 31
-9 4 -14 13 -10 21 4 10 -1 15 -17 15 -21 1 -22 1 -3 15 20 15 20 15 0 16 -10
1 -23 1 -28 0 -5 -1 -4 4 3 12 8 11 9 16 1 19 -6 2 -12 12 -14 22 -1 10 -9 24
-18 30 -8 6 -14 19 -12 29 2 15 0 16 -12 6 -11 -9 -14 -8 -14 4 0 8 6 18 13
20 7 3 4 6 -6 6 -10 1 -16 5 -13 9 3 5 -4 16 -14 25 -11 9 -17 23 -14 31 3 8
0 17 -7 22 -7 4 -10 3 -5 -4 3 -6 2 -14 -4 -17 -6 -4 -10 -3 -9 2 4 26 -2 63
-11 58 -10 -6 -19 21 -23 63 -1 14 -6 21 -14 18 -13 -5 -18 16 -14 56 2 13 -2
16 -16 11 -16 -6 -17 -5 -3 12 8 10 10 16 4 12 -7 -4 -14 3 -18 18 -4 14 -11
23 -17 19 -6 -3 -10 0 -8 7 4 33 -2 59 -13 56 -9 -1 -14 13 -16 41 -2 32 -7
42 -17 38 -10 -3 -13 4 -13 26 1 16 -4 33 -11 37 -6 4 -13 25 -16 47 -2 21 -5
40 -6 42 -1 1 -2 7 -3 12 0 6 -7 14 -14 19 -8 5 -13 11 -13 15 5 33 -1 57 -12
53 -8 -3 -12 4 -11 22 0 14 -4 29 -10 33 -8 5 -7 8 1 8 9 0 10 7 3 24 -5 14
-5 28 1 35 6 8 5 8 -3 1 -21 -18 -24 -11 -23 54 0 47 -3 62 -11 55 -12 -10
-13 -6 -17 78 -1 24 -6 43 -10 43 -5 0 -5 6 -1 13 6 9 5 9 -7 0 -12 -10 -14 3
-14 89 0 55 -3 102 -7 104 -4 3 -5 -2 -2 -10 3 -9 2 -16 -3 -16 -9 0 -15 55
-17 167 -1 28 -5 55 -10 60 -6 5 -6 2 -1 -7 5 -9 4 -12 -1 -7 -10 10 -13 98
-3 91 4 -2 9 3 12 11 4 9 1 12 -9 8 -7 -3 -14 0 -14 6 0 6 6 11 13 11 8 0 9 3
1 8 -6 4 -11 23 -12 42 -4 155 -3 252 1 257 3 3 3 11 1 18 -3 7 0 16 5 20 6 3
8 11 5 17 -13 20 -14 69 -2 62 7 -5 8 -3 2 7 -4 8 -9 34 -10 59 0 25 1 37 3
28 6 -24 18 -23 20 2 1 11 -2 20 -8 20 -5 0 -9 5 -9 11 0 5 4 8 8 5 4 -2 8 10
9 27 0 18 1 49 2 70 1 27 5 36 14 31 9 -6 9 -4 0 7 -16 16 -17 29 -2 29 5 0 7
-6 3 -12 -4 -8 -3 -9 2 -5 5 5 9 36 10 70 2 98 3 100 17 91 7 -5 5 -1 -6 8
-17 17 -17 18 1 36 10 10 18 28 17 40 -1 12 1 22 4 22 3 0 5 18 5 39 -1 27 2
38 10 35 8 -3 11 7 11 28 -1 18 3 39 9 47 8 11 8 13 -1 7 -9 -5 -11 -2 -7 8 3
9 11 13 17 9 6 -4 8 0 4 10 -3 9 -3 19 2 21 4 3 7 21 6 41 -2 29 1 35 14 30
13 -5 14 -4 3 6 -14 15 -16 33 -2 24 9 -5 14 28 13 73 -1 10 2 10 15 0 12 -10
14 -10 8 0 -4 6 -3 12 2 12 6 0 8 8 5 19 -3 11 2 21 11 24 10 4 16 19 16 42 0
21 5 35 13 35 8 0 7 4 -3 10 -13 8 -8 14 10 12 3 0 7 13 8 29 4 45 6 53 19 64
7 5 14 22 16 37 1 15 7 31 12 35 4 5 5 2 0 -6 -5 -9 -4 -12 3 -7 7 4 12 16 12
27 0 14 4 18 13 13 8 -5 8 -2 -2 9 -12 15 -11 17 3 17 11 0 16 9 16 30 0 19 5
30 14 30 8 0 14 11 14 26 0 15 6 30 13 35 8 4 14 12 14 16 2 23 17 63 23 59 4
-2 13 2 20 10 11 12 10 14 -3 14 -9 0 -13 5 -10 10 4 6 10 8 15 5 5 -3 13 9
18 27 5 18 14 32 21 31 6 -2 11 10 11 30 0 22 3 28 9 18 13 -20 24 5 17 37 -4
18 -3 22 2 13 11 -15 16 -8 26 32 4 15 11 25 16 22 6 -3 10 -1 10 4 0 20 3 26
17 36 8 6 15 21 16 33 1 13 6 21 13 18 7 -3 15 6 18 20 4 14 11 22 16 19 6 -4
10 6 10 22 0 18 3 24 8 15 6 -9 13 0 22 28 9 28 16 37 22 28 5 -9 8 -5 8 11 0
15 4 21 14 18 7 -3 13 0 13 6 -1 35 4 46 18 41 8 -4 15 -2 15 4 0 6 -6 13 -12
15 -9 4 -8 6 2 6 8 1 26 13 40 28 14 15 18 23 10 19 -9 -4 -8 -1 3 7 9 8 17
19 17 25 0 7 8 9 18 5 9 -3 14 -3 10 2 -11 12 11 47 24 39 7 -5 9 -2 5 8 -4
11 1 18 14 21 11 3 18 11 17 19 -2 7 3 12 10 10 6 -1 12 7 12 18 0 13 5 18 15
14 8 -4 15 -1 15 5 0 6 9 20 20 31 12 12 18 25 15 30 -3 6 1 7 9 4 11 -4 16 0
16 10 0 9 7 16 16 16 8 0 13 4 9 9 -3 5 -1 12 5 16 6 4 8 12 4 18 -3 7 2 3 12
-8 12 -15 15 -16 11 -3 -4 11 1 18 15 21 11 3 17 10 14 16 -9 13 35 53 52 46
7 -2 10 -1 7 4 -3 5 5 17 17 27 18 13 19 15 4 10 -15 -5 -14 -2 5 19 13 13 29
25 36 25 6 0 15 5 19 12 5 7 2 9 -7 4 -8 -4 -5 -1 5 8 10 8 23 13 27 10 5 -3
9 1 9 9 0 8 9 17 21 20 12 3 18 10 14 16 -3 7 2 11 14 11 15 0 19 5 14 18 -3
9 -3 14 2 10 11 -11 36 12 28 25 -3 6 -1 7 6 3 6 -4 9 -13 5 -19 -3 -7 2 -3
11 8 9 11 21 19 26 17 5 -1 9 7 9 18 0 13 5 18 15 14 10 -4 15 0 15 11 0 11 5
15 15 11 9 -3 15 0 15 9 0 8 15 22 33 30 17 8 24 13 14 10 -10 -3 -15 -1 -12
5 3 6 17 10 31 10 15 0 24 6 24 15 0 8 6 15 13 15 7 0 18 9 25 20 7 11 18 17
27 14 10 -4 15 0 15 10 0 9 8 16 20 16 11 0 20 7 20 15 0 13 19 20 43 16 5 -1
6 3 2 9 -3 5 6 15 20 20 14 5 23 14 20 20 -4 6 6 10 24 10 23 0 29 4 25 15 -5
11 1 15 21 15 23 0 26 2 15 15 -15 18 1 20 19 3 11 -10 13 -10 7 0 -5 7 -1 12
11 12 10 0 25 5 33 11 12 9 11 10 -5 4 -13 -4 -17 -3 -10 4 6 5 21 11 35 13
14 2 24 9 22 16 -1 7 10 12 29 12 25 0 29 3 21 13 -8 9 -7 13 6 14 48 4 59 8
55 20 -3 8 3 13 16 13 12 0 24 7 27 15 4 8 17 15 30 15 15 0 24 6 24 15 0 8 3
14 8 14 28 -5 52 3 52 17 0 8 5 12 10 9 6 -4 7 -11 4 -17 -4 -7 -2 -8 5 -4 6
4 9 12 6 17 -4 5 7 9 24 9 29 0 55 19 29 21 -7 1 5 5 27 8 24 4 39 11 38 19
-3 10 38 18 69 13 4 0 5 6 1 15 -3 8 -2 14 3 13 30 -5 53 2 48 16 -5 12 1 14
25 11 17 -2 31 0 31 5 0 5 7 6 15 3 9 -4 15 0 15 9 0 9 8 16 18 16 52 1 72 4
72 13 0 5 -4 7 -9 3 -5 -3 -13 -1 -16 5 -4 6 -3 10 2 9 4 -1 25 -1 46 0 26 1
37 6 37 16 0 8 3 14 8 14 21 -4 94 4 79 8 -30 8 -8 23 34 23 30 0 38 3 33 13
-5 8 -2 7 9 -2 10 -8 20 -11 24 -7 3 3 1 6 -5 6 -7 0 -12 4 -12 8 0 4 19 8 41
9 23 1 49 9 59 18 10 9 24 15 32 14 35 -4 79 2 73 11 -3 6 0 10 7 11 7 0 22 2
33 5 11 2 34 5 52 6 18 1 29 6 27 12 -3 8 20 13 68 15 74 3 92 7 84 20 -3 3
23 7 57 8 34 1 68 2 75 2 6 1 12 8 12 17 0 8 5 12 10 9 6 -4 7 -11 4 -17 -4
-7 -2 -8 5 -4 6 4 9 12 6 17 -4 5 20 9 57 9 35 0 71 1 80 1 11 0 15 6 11 17
-4 15 -3 15 6 2 11 -16 80 -21 78 -6 -2 9 9 11 115 17 26 1 47 5 46 8 -1 16 3
22 12 16 6 -4 8 -11 5 -16z m749 13 c3 -5 -1 -9 -9 -9 -8 0 -12 4 -9 9 3 4 7
8 9 8 2 0 6 -4 9 -8z m31 -2 c3 -5 1 -10 -4 -10 -6 0 -11 5 -11 10 0 6 2 10 4
10 3 0 8 -4 11 -10z m-995 -24 c0 -3 -4 -8 -10 -11 -5 -3 -10 -1 -10 4 0 6 5
11 10 11 6 0 10 -2 10 -4z m2150 -216 c0 -5 -2 -10 -4 -10 -3 0 -8 5 -11 10
-3 6 -1 10 4 10 6 0 11 -4 11 -10z m320 -120 c0 -5 -2 -10 -4 -10 -3 0 -8 5
-11 10 -3 6 -1 10 4 10 6 0 11 -4 11 -10z m255 -120 c3 -5 1 -10 -4 -10 -6 0
-11 5 -11 10 0 6 2 10 4 10 3 0 8 -4 11 -10z m915 -594 c0 -3 -4 -8 -10 -11
-5 -3 -10 -1 -10 4 0 6 5 11 10 11 6 0 10 -2 10 -4z m-6305 -246 c3 -5 1 -10
-4 -10 -6 0 -11 5 -11 10 0 6 2 10 4 10 3 0 8 -4 11 -10z m-1162 -1965 c-7
-21 -13 -19 -13 6 0 11 4 18 10 14 5 -3 7 -12 3 -20z m81 -161 c3 -8 2 -12 -4
-9 -6 3 -10 10 -10 16 0 14 7 11 14 -7z m-107 -39 c0 -8 -4 -12 -9 -9 -5 3 -6
10 -3 15 9 13 12 11 12 -6z m-33 -265 c-6 -6 -10 -3 -10 10 0 13 4 16 10 10 7
-7 7 -13 0 -20z m1 -450 c3 -5 1 -10 -4 -10 -6 0 -11 5 -11 10 0 6 2 10 4 10
3 0 8 -4 11 -10z m1 -106 c1 -19 -2 -36 -6 -39 -4 -2 -7 15 -6 39 1 51 10 51
12 0z m114 -34 c0 -5 -2 -10 -4 -10 -3 0 -8 5 -11 10 -3 6 -1 10 4 10 6 0 11
-4 11 -10z m8775 -20 c3 -5 1 -10 -4 -10 -6 0 -11 5 -11 10 0 6 2 10 4 10 3 0
8 -4 11 -10z m-8829 -355 c1 -8 -1 -17 -5 -19 -4 -3 -7 6 -7 19 0 25 8 25 12
0z m8821 -240 c0 -8 -4 -15 -9 -15 -10 0 -11 14 -1 23 9 10 10 9 10 -8z m-240
-657 c-3 -8 -6 -5 -6 6 -1 11 2 17 5 13 3 -3 4 -12 1 -19z m-5582 -2167 c3 -5
1 -12 -5 -16 -5 -3 -10 1 -10 9 0 18 6 21 15 7z m2090 -181 c-3 -5 -12 -10
-18 -10 -7 0 -6 4 3 10 19 12 23 12 15 0z m-42 -7 c-7 -2 -19 -2 -25 0 -7 3
-2 5 12 5 14 0 19 -2 13 -5z m-1723 -7 c0 -3 -4 -8 -10 -11 -5 -3 -10 -1 -10
4 0 6 5 11 10 11 6 0 10 -2 10 -4z m300 -66 c0 -5 -5 -10 -11 -10 -5 0 -7 5
-4 10 3 6 8 10 11 10 2 0 4 -4 4 -10z m595 -60 c3 -5 1 -10 -4 -10 -6 0 -11 5
-11 10 0 6 2 10 4 10 3 0 8 -4 11 -10z m519 -1 c3 -3 -6 -6 -19 -7 -13 -1 -26
2 -29 6 -5 8 40 9 48 1z m80 2 c-9 -9 -34 -9 -34 -1 0 5 9 8 20 7 10 -1 17 -3
14 -6z"/>
<path d="M5185 8590 c-2 -3 5 -7 16 -7 10 -1 19 2 19 6 0 9 -29 10 -35 1z"/>
<path d="M3260 8440 c-12 -7 -10 -9 7 -7 12 0 19 5 17 9 -6 10 -6 10 -24 -2z"/>
<path d="M1855 7759 c-4 -6 -5 -12 -2 -15 2 -3 7 2 10 11 7 17 1 20 -8 4z"/>
<path d="M4225 7230 c-145 -21 -256 -152 -256 -300 0 -95 26 -165 85 -228 148
-158 411 -113 504 87 28 60 33 161 12 228 -45 143 -194 235 -345 213z"/>
<path d="M2202 6425 c-8 -12 -9 -4024 -1 -4036 7 -13 449 -13 461 -1 10 10 4
3260 -6 3387 -4 63 -4 66 6 30 49 -184 86 -295 130 -394 28 -64 129 -291 225
-504 95 -213 182 -408 193 -432 11 -25 30 -66 41 -92 12 -27 60 -133 106 -238
47 -104 91 -203 99 -220 24 -52 460 -1028 577 -1292 l111 -251 41 -4 c22 -2
76 -1 119 2 l80 5 39 90 c46 106 144 327 180 405 14 30 96 215 182 410 86 195
195 440 241 543 47 103 89 198 93 210 5 12 22 51 39 87 17 36 75 166 130 290
55 124 109 245 120 270 11 25 100 223 196 441 167 377 228 533 256 662 7 31
17 57 22 57 5 0 7 -3 5 -7 -3 -5 -8 -62 -12 -128 -4 -66 -10 -136 -12 -155 -3
-19 -7 -743 -10 -1607 l-4 -1573 148 -1 c186 0 327 1 330 5 2 2 3 458 3 1014
l1 1012 232 1 c128 0 240 2 249 4 9 2 54 6 100 9 145 12 200 23 336 71 115 41
150 58 250 128 98 68 131 98 202 184 81 98 94 120 128 203 8 19 20 49 27 65
31 71 44 113 49 160 3 28 9 79 13 115 9 79 9 133 0 224 -14 142 -21 173 -67
287 -41 99 -59 130 -125 210 -65 78 -96 106 -188 166 -60 40 -119 75 -131 79
-12 3 -69 21 -129 40 -157 49 -206 54 -607 60 -168 2 -321 7 -340 11 -45 7
-579 10 -591 2 -5 -3 -56 -111 -115 -240 -58 -128 -121 -267 -140 -307 -19
-40 -34 -75 -34 -77 0 -3 -14 -35 -31 -72 -17 -38 -137 -302 -266 -588 -129
-286 -243 -538 -253 -560 -10 -22 -89 -197 -175 -390 -189 -421 -214 -475
-217 -475 -2 0 -3 478 -2 1063 0 584 -2 1067 -4 1074 -2 8 -68 11 -238 11
l-234 0 -2 -1074 -3 -1074 -139 317 c-77 175 -151 345 -166 378 -15 33 -44 98
-64 145 -21 47 -44 99 -51 115 -21 47 -197 447 -260 590 -31 72 -66 150 -77
175 -11 25 -45 101 -75 170 -30 69 -61 139 -68 155 -8 17 -75 169 -150 340
-74 170 -139 313 -145 319 -13 13 -620 14 -628 1z m4625 -367 c26 -5 63 -11
82 -14 35 -4 65 -10 111 -19 13 -2 42 -7 65 -10 94 -14 103 -19 250 -146 105
-91 93 -69 139 -263 36 -151 41 -186 35 -234 -4 -32 -9 -75 -12 -97 -2 -22
-21 -80 -41 -130 -68 -167 -201 -281 -402 -343 -127 -39 -177 -44 -476 -47
l-248 -3 1 659 0 658 224 -1 c123 0 246 -5 272 -10z"/>
<path d="M8765 5870 c3 -5 8 -10 11 -10 2 0 4 5 4 10 0 6 -5 10 -11 10 -5 0
-7 -4 -4 -10z"/>
<path d="M215 4899 c-4 -6 -5 -12 -2 -15 2 -3 7 2 10 11 7 17 1 20 -8 4z"/>
<path d="M8975 4810 c3 -5 8 -10 11 -10 2 0 4 5 4 10 0 6 -5 10 -11 10 -5 0
-7 -4 -4 -10z"/>
<path d="M8974 4376 c1 -14 4 -28 7 -31 3 -3 5 6 5 19 -1 14 -4 28 -7 31 -3 3
-5 -6 -5 -19z"/>
<path d="M215 4359 c-4 -6 -5 -12 -2 -15 2 -3 7 2 10 11 7 17 1 20 -8 4z"/>
<path d="M7890 1989 c0 -5 5 -7 10 -4 6 3 10 8 10 11 0 2 -4 4 -10 4 -5 0 -10
-5 -10 -11z"/>
<path d="M6635 1100 c-3 -5 -2 -10 4 -10 5 0 13 5 16 10 3 6 2 10 -4 10 -5 0
-13 -4 -16 -10z"/>
<path d="M2628 1063 c7 -3 16 -2 19 1 4 3 -2 6 -13 5 -11 0 -14 -3 -6 -6z"/>
<path d="M6285 950 c-3 -5 -1 -10 4 -10 6 0 11 5 11 10 0 6 -2 10 -4 10 -3 0
-8 -4 -11 -10z"/>
<path d="M3797 709 c7 -7 15 -10 18 -7 3 3 -2 9 -12 12 -14 6 -15 5 -6 -5z"/>
<path d="M4840 646 c7 -7 13 -7 20 0 6 6 3 10 -10 10 -13 0 -16 -4 -10 -10z"/>
<path d="M4926 652 c-3 -5 1 -9 9 -9 8 0 12 4 9 9 -3 4 -7 8 -9 8 -2 0 -6 -4
-9 -8z"/>
<path d="M4270 8752 c0 -4 9 -8 20 -9 11 -1 20 2 20 5 0 4 -9 8 -20 9 -11 1
-20 -2 -20 -5z"/>
<path d="M3755 8690 c-3 -5 -1 -10 4 -10 6 0 11 5 11 10 0 6 -2 10 -4 10 -3 0
-8 -4 -11 -10z"/>
<path d="M5758 8623 c7 -3 16 -2 19 1 4 3 -2 6 -13 5 -11 0 -14 -3 -6 -6z"/>
<path d="M6235 8480 c3 -5 8 -10 11 -10 2 0 4 5 4 10 0 6 -5 10 -11 10 -5 0
-7 -4 -4 -10z"/>
<path d="M1795 7880 c-3 -6 1 -7 9 -4 18 7 21 14 7 14 -6 0 -13 -4 -16 -10z"/>
<path d="M990 7129 c0 -5 5 -7 10 -4 6 3 10 8 10 11 0 2 -4 4 -10 4 -5 0 -10
-5 -10 -11z"/>
<path d="M400 6179 c0 -5 5 -7 10 -4 6 3 10 8 10 11 0 2 -4 4 -10 4 -5 0 -10
-5 -10 -11z"/>
<path d="M170 5511 c0 -6 4 -12 8 -15 5 -3 9 1 9 9 0 8 -4 15 -9 15 -4 0 -8
-4 -8 -9z"/>
<path d="M9070 5189 c0 -5 5 -7 10 -4 6 3 10 8 10 11 0 2 -4 4 -10 4 -5 0 -10
-5 -10 -11z"/>
<path d="M9103 4355 c0 -19 3 -35 6 -35 8 0 8 57 0 64 -3 3 -5 -10 -6 -29z"/>
<path d="M9075 4111 c-3 -5 -2 -12 3 -15 5 -3 9 1 9 9 0 17 -3 19 -12 6z"/>
<path d="M725 2490 c3 -5 8 -10 11 -10 2 0 4 5 4 10 0 6 -5 10 -11 10 -5 0 -7
-4 -4 -10z"/>
<path d="M2510 970 c0 -5 5 -10 11 -10 5 0 7 5 4 10 -3 6 -8 10 -11 10 -2 0
-4 -4 -4 -10z"/>
<path d="M4155 520 c-3 -5 -1 -10 4 -10 6 0 11 5 11 10 0 6 -2 10 -4 10 -3 0
-8 -4 -11 -10z"/>
</g>
</svg>
